HIERARCHY
ROOT Hips
{
	OFFSET -0.001795 -0.223333 0.028219
	CHANNELS 6 Xposition Yposition Zposition Zrotation Yrotation Xrotation 
	JOINT LeftUpLeg
	{
		OFFSET 0.069520 -0.091406 -0.006815
		CHANNELS 3 Zrotation Yrotation Xrotation
		JOINT LeftLeg
		{
			OFFSET 0.034277 -0.375199 -0.004496
			CHANNELS 3 Zrotation Yrotation Xrotation
			JOINT LeftFoot
			{
				OFFSET -0.013596 -0.397961 -0.043693
				CHANNELS 3 Zrotation Yrotation Xrotation
				JOINT LeftToe
				{
					OFFSET 0.026358 -0.055791 0.119288
					CHANNELS 3 Zrotation Yrotation Xrotation
					End Site
					{
						OFFSET 0.000000 0.000000 0.000000
					}
				}
			}
		}
	}
	JOINT RightUpLeg
	{
		OFFSET -0.067670 -0.090522 -0.004320
		CHANNELS 3 Zrotation Yrotation Xrotation
		JOINT RightLeg
		{
			OFFSET -0.038290 -0.382569 -0.008850
			CHANNELS 3 Zrotation Yrotation Xrotation
			JOINT RightFoot
			{
				OFFSET 0.015774 -0.398415 -0.042312
				CHANNELS 3 Zrotation Yrotation Xrotation
				JOINT RightToe
				{
					OFFSET -0.025372 -0.048144 0.123348
					CHANNELS 3 Zrotation Yrotation Xrotation
					End Site
					{
						OFFSET 0.000000 0.000000 0.000000
					}
				}
			}
		}
	}
	JOINT Spine
	{
		OFFSET -0.002533 0.108963 -0.026696
		CHANNELS 3 Zrotation Yrotation Xrotation
		JOINT Spine1
		{
			OFFSET 0.005487 0.135180 0.001092
			CHANNELS 3 Zrotation Yrotation Xrotation
			JOINT Spine2
			{
				OFFSET 0.001457 0.052922 0.025425
				CHANNELS 3 Zrotation Yrotation Xrotation
				JOINT Neck
				{
					OFFSET -0.002778 0.213870 -0.042857
					CHANNELS 3 Zrotation Yrotation Xrotation
					JOINT Head
					{
						OFFSET 0.005152 0.064970 0.051349
						CHANNELS 3 Zrotation Yrotation Xrotation
						End Site
						{
							OFFSET 0.000000 0.000000 0.000000
						}
					}
				}
				JOINT LeftShoulder
				{
					OFFSET 0.078845 0.121749 -0.034090
					CHANNELS 3 Zrotation Yrotation Xrotation
					JOINT LeftArm
					{
						OFFSET 0.090977 0.030469 -0.008868
						CHANNELS 3 Zrotation Yrotation Xrotation
						JOINT LeftForeArm
						{
							OFFSET 0.259612 -0.012772 -0.027456
							CHANNELS 3 Zrotation Yrotation Xrotation
							JOINT LeftHand
							{
								OFFSET 0.249234 0.008986 -0.001171
								CHANNELS 3 Zrotation Yrotation Xrotation
								End Site
								{
									OFFSET 0.000000 0.000000 0.000000
								}
							}
						}
					}
				}
				JOINT RightShoulder
				{
					OFFSET -0.081759 0.118833 -0.038615
					CHANNELS 3 Zrotation Yrotation Xrotation
					JOINT RightArm
					{
						OFFSET -0.096012 0.032551 -0.009143
						CHANNELS 3 Zrotation Yrotation Xrotation
						JOINT RightForeArm
						{
							OFFSET -0.253742 -0.013329 -0.021401
							CHANNELS 3 Zrotation Yrotation Xrotation
							JOINT RightHand
							{
								OFFSET -0.255298 0.007772 -0.005559
								CHANNELS 3 Zrotation Yrotation Xrotation
								End Site
								{
									OFFSET 0.000000 0.000000 0.000000
								}
							}
						}
					}
				}
			}
		}
	}
}
MOTION
Frames: 11
Frame Time: 0.050000
-15.926602 0.889235 5.840723 66.926860 -83.461677 -13.609438 -18.746491 0.161024 -45.826884 -4.170646 1.086509 -1.320134 0.747758 8.280521 -23.288474 0.000000 0.000000 0.000000 -74.830152 -6.614908 -86.881548 17.310769 -0.767071 -6.864120 -33.888804 -51.384398 71.571193 0.000000 0.000000 0.000000 6.989040 3.911049 -24.276257 4.802252 -0.243667 2.752798 -6.009238 -4.006681 35.670738 11.711593 -8.693173 -9.802524 0.000000 0.000000 0.000000 44.368038 -32.987137 -3.110460 -0.964154 -48.097008 8.032677 14.464496 -5.334294 0.080494 0.000000 0.000000 0.000000 -36.873575 19.031447 12.941979 -5.036589 42.837652 -14.937830 -8.843621 12.002901 -1.812773 0.000000 0.000000 0.000000 
-16.849396 0.881467 5.838609 39.148691 -80.761939 15.536643 -17.713927 -0.564694 -43.621944 -0.857795 0.262825 0.399763 -0.355378 5.882278 -26.712221 0.000000 0.000000 0.000000 -72.192172 -7.897484 -87.680883 23.459857 -1.707008 -4.218876 -36.780915 -54.592573 68.101455 0.000000 0.000000 0.000000 8.170054 3.436990 -23.458462 4.971047 -0.360740 3.159056 -5.558112 -4.110321 34.647473 11.192277 -8.467682 -10.923032 0.000000 0.000000 0.000000 46.349608 -32.464460 -3.722910 2.325134 -49.121909 6.870571 15.916019 -3.595042 0.225819 0.000000 0.000000 0.000000 -37.864983 19.441265 12.283083 -7.819303 40.887795 -14.133514 -9.428843 11.999892 -1.844541 0.000000 0.000000 0.000000 
-17.905329 0.873371 5.899323 25.653835 -77.092038 30.259414 -16.700603 -1.026193 -41.951402 0.869720 -0.130459 1.284306 -0.261774 6.121682 -27.408095 0.000000 0.000000 0.000000 -68.597875 -9.209605 -90.351720 28.839904 -3.348612 -0.767111 -37.145956 -55.346081 64.727905 0.000000 0.000000 0.000000 9.066653 3.085501 -22.900316 4.784873 -0.356535 3.666053 -5.686762 -5.049116 33.725973 10.127671 -7.859926 -10.247557 0.000000 0.000000 0.000000 46.876081 -32.695488 -3.625966 1.910423 -49.377115 6.781099 17.184146 -1.562248 0.429902 0.000000 0.000000 0.000000 -38.518629 20.140252 11.907963 -9.871807 40.623884 -14.432941 -10.549000 11.164755 -1.837612 0.000000 0.000000 0.000000 
-19.043535 0.863925 6.061166 18.548986 -71.874291 38.644684 -14.507170 -1.601699 -38.171389 2.364773 -0.392971 -0.498962 -0.440354 3.842646 -25.617637 0.000000 0.000000 0.000000 -64.804871 -10.779827 -92.492176 37.289028 -7.055400 5.244512 -36.858321 -58.512744 54.329698 0.000000 0.000000 0.000000 10.788919 2.480301 -21.825796 4.818994 -0.233136 5.437508 -5.397237 -6.272624 31.851178 8.331116 -6.768929 -9.574714 0.000000 0.000000 0.000000 46.310174 -33.602088 -2.921078 6.643220 -49.395887 4.361174 16.488984 1.150874 0.610055 0.000000 0.000000 0.000000 -39.010550 21.404966 11.226238 -12.084517 39.189799 -13.876480 -12.148552 9.529276 -1.774693 0.000000 0.000000 0.000000 
-20.239927 0.858507 6.310213 15.811875 -67.875245 43.398858 -14.083169 -1.847881 -34.216320 5.469288 -0.713621 -2.024345 -0.148520 2.172967 -20.084328 0.000000 0.000000 0.000000 -60.220052 -10.490188 -95.578858 41.630489 -10.198741 10.050381 -34.145795 -60.038814 43.878114 0.000000 0.000000 0.000000 10.864517 2.443653 -21.857321 5.469003 -0.387310 6.791406 -5.470715 -7.251353 30.718493 7.150217 -5.991558 -8.336352 0.000000 0.000000 0.000000 46.825454 -33.696459 -2.866164 6.061731 -48.546618 4.000072 18.370532 1.134701 0.772337 0.000000 0.000000 0.000000 -40.022453 23.207999 10.541348 -12.841751 39.352829 -13.923018 -11.538623 7.695334 -1.302461 0.000000 0.000000 0.000000 
-21.468681 0.848519 6.626817 16.951666 -64.458764 44.171418 -13.413709 -1.943503 -31.057464 6.217439 -0.785405 -1.637649 0.033432 0.344017 -13.928039 0.000000 0.000000 0.000000 -59.089427 -11.894917 -96.590577 47.501024 -14.177005 13.078216 -33.337011 -61.133759 35.890741 0.000000 0.000000 0.000000 10.571987 1.456489 -18.553983 4.744894 -0.033934 7.594227 -4.443924 -7.775156 28.443725 5.961587 -5.191574 -8.548386 0.000000 0.000000 0.000000 46.131208 -32.579083 -2.552127 8.752936 -47.575346 2.583635 18.531070 2.170713 0.934890 0.000000 0.000000 0.000000 -39.742785 24.614255 10.290995 -14.441383 38.847997 -14.094442 -9.468761 4.743555 -0.658559 0.000000 0.000000 0.000000 
-22.679501 0.840258 7.016990 17.766190 -59.998083 46.099788 -12.333956 -1.908312 -31.001498 3.997793 -0.584961 -0.134350 1.108944 2.220345 -11.214900 0.000000 0.000000 0.000000 -54.831779 -11.490535 -98.633602 47.429060 -16.801583 18.785998 -28.696702 -59.615385 27.202222 0.000000 0.000000 0.000000 10.399356 0.346018 -14.100580 4.867635 0.268445 10.117645 -4.316072 -7.863262 23.169560 6.331845 -4.971835 -5.433100 0.000000 0.000000 0.000000 44.231760 -34.471997 -1.151013 12.758470 -44.286935 0.021189 20.000358 3.910267 1.270642 0.000000 0.000000 0.000000 -38.126118 27.230664 9.667226 -13.880797 37.175992 -12.354599 -9.361964 2.267222 -0.370837 0.000000 0.000000 0.000000 
-23.856075 0.827016 7.491547 20.957636 -54.637125 47.003686 -11.219147 -1.892687 -29.152859 0.434817 -0.043266 -0.936096 1.459123 1.198112 2.389554 0.000000 0.000000 0.000000 -51.314783 -12.047328 -100.291806 47.248637 -21.230285 27.490165 -22.205466 -56.410869 12.377320 0.000000 0.000000 0.000000 9.446137 -0.778988 -7.141590 5.331590 0.448055 13.172870 -3.301546 -7.467414 16.220261 7.538336 -5.426170 -3.385015 0.000000 0.000000 0.000000 43.460887 -34.355167 -0.103772 17.258516 -40.853910 -2.086423 20.723883 4.773441 1.440877 0.000000 0.000000 0.000000 -36.698610 27.256513 9.124923 -14.769662 33.966602 -10.308949 -9.547219 0.137707 -0.183239 0.000000 0.000000 0.000000 
-24.983341 0.818296 8.072803 23.135821 -50.451240 51.131890 -8.997608 -1.615859 -24.388551 -1.467660 0.263565 -2.862892 -2.881555 -3.859170 22.750256 0.000000 0.000000 0.000000 -46.283800 -10.314414 -103.166108 40.860393 -23.275142 39.639411 -16.676765 -54.997725 -2.612676 0.000000 0.000000 0.000000 9.822127 -1.861945 2.329987 4.559815 1.000802 13.806683 -2.595003 -7.638653 6.599645 7.349104 -4.844351 -2.207268 0.000000 0.000000 0.000000 43.208237 -33.070863 1.118671 17.167281 -37.806864 -2.366098 23.789036 7.122988 2.323888 0.000000 0.000000 0.000000 -38.453333 27.849749 9.283691 -14.466023 30.689031 -8.752409 -11.534837 0.235215 -0.233587 0.000000 0.000000 0.000000 
-26.049212 0.816206 8.708668 26.835981 -45.647802 55.351712 -4.337863 -1.337971 -17.021039 -2.555202 0.401522 0.957220 -6.745912 -4.573141 34.434962 0.000000 0.000000 0.000000 -42.620986 -10.267803 -103.581744 33.034354 -20.793415 46.269701 -13.379112 -49.403809 -5.883671 0.000000 0.000000 0.000000 12.081981 -3.351426 14.288004 3.255834 0.818560 7.781168 -2.652883 -8.296834 -1.217134 8.275565 -4.650629 4.367112 0.000000 0.000000 0.000000 40.457715 -34.885574 3.985048 16.702741 -33.147471 -2.386419 26.063624 9.003432 3.170455 0.000000 0.000000 0.000000 -35.244044 32.854668 10.572247 -17.696761 24.888313 -7.822468 -11.062234 -3.179770 0.118206 0.000000 0.000000 0.000000 
-27.069626 0.835929 9.411713 31.750827 -40.727756 62.285870 -1.725701 -1.011912 -10.450481 -3.205006 0.534010 3.593013 -2.715119 3.290712 42.524312 0.000000 0.000000 0.000000 -40.342202 -11.794770 -101.239534 26.026803 -15.540166 44.739038 -9.284408 -48.896075 -14.363175 0.000000 0.000000 0.000000 16.201263 -6.155210 27.075184 0.766790 0.218680 -8.784728 -2.643317 -7.865365 0.230391 9.976327 -4.963171 1.046214 0.000000 0.000000 0.000000 41.799012 -30.122715 4.613386 19.110296 -33.323252 -2.760731 23.743484 11.717042 3.471276 0.000000 0.000000 0.000000 -30.926063 32.822509 12.151235 -22.183969 20.761044 -7.882677 -12.528234 -5.117337 0.376311 0.000000 0.000000 0.000000 
